<svg width="134" height="97" viewBox="0 0 134 97" fill="none" xmlns="http://www.w3.org/2000/svg">
<path d="M88.3262 96.988C81.6029 96.9728 75.1954 95.5671 69.1339 92.6496C68.8632 92.5287 68.442 92.4985 68.1713 92.6194C61.087 95.7333 53.6868 97.124 45.9708 96.731C37.608 96.3077 29.892 93.8136 22.8378 89.2787C11.888 82.2195 4.78862 72.3185 1.59994 59.6512C-1.10744 48.9188 -0.445634 38.3526 4.09674 28.2248C10.429 14.1669 21.1682 5.24836 36.0438 1.46934C46.8131 -1.25156 57.2816 -0.148083 67.4042 4.40186C67.69 4.52279 68.1261 4.49256 68.427 4.37163C75.06 1.46934 81.9638 -0.057387 89.1985 0.275167C101.788 0.849579 112.542 5.62627 121.146 14.9378C127.718 22.0423 131.674 30.462 133.269 40.0154C135.119 51.1862 133.479 61.843 128.275 71.8499C121.522 84.8195 111.008 93.0729 96.6889 96.1566C93.9665 96.7461 91.1087 96.6554 88.3262 96.988C88.3412 97.0484 88.3262 96.9124 88.3262 96.988ZM77.9178 34.7248C78.73 38.1561 78.9105 41.5875 78.4593 45.049C77.6772 51.0804 75.406 56.507 71.4953 61.1628C66.6672 66.9069 60.5906 70.2022 52.9949 70.1569C46.7228 70.1267 41.6841 67.572 38.2397 62.2058C36.1039 58.8954 35.412 55.1466 35.382 51.2618C35.3519 46.4851 36.3145 41.8595 37.9991 37.4154C42.4813 25.6097 50.077 16.2378 60.3048 8.96692C60.5154 8.81576 60.7109 8.6646 60.9215 8.49832C60.8463 8.40763 60.8313 8.3774 60.8162 8.3774C60.726 8.34716 60.6357 8.30181 60.5305 8.27158C51.2502 5.30883 42.015 5.44487 32.8852 8.83088C24.1012 12.0808 17.1222 17.6587 12.2339 25.7004C6.47321 35.2085 4.77358 45.5025 7.05981 56.3861C9.25579 66.8313 14.46 75.4929 22.9882 81.9021C34.8856 90.8357 48.0314 92.9671 62.1699 88.3869C69.6603 85.9532 76.0076 81.5998 81.3772 75.8405C87.0778 69.7336 91.3795 62.7802 93.4852 54.5873C94.5381 50.4908 94.9442 46.3641 93.8462 42.2072C91.7856 34.498 84.1297 32.3364 77.9178 34.7248ZM75.4962 88.5985C75.8121 88.7195 75.9926 88.795 76.1731 88.8555C82.2647 90.9113 88.4766 91.395 94.7938 90.2915C104.495 88.5985 112.467 83.7614 118.453 75.9766C127.809 63.8232 130.17 50.1583 125.989 35.4201C123.748 27.5295 119.461 20.8482 113.144 15.6029C100.178 4.87046 82.4301 3.29839 67.7351 11.4611C61.2825 15.0436 55.8978 19.8807 51.4006 25.7307C47.3245 31.0213 44.1659 36.7805 42.4813 43.2805C41.5337 46.9234 40.9772 50.6269 41.6691 54.4059C42.2106 57.3535 43.459 59.8931 45.9106 61.7221C48.4676 63.6418 51.3705 64.2918 54.499 63.9744C55.6421 63.8535 56.7853 63.5663 57.9434 63.3546C57.8832 63.0372 57.8682 62.9163 57.8381 62.7953C56.9357 59.2884 56.68 55.7059 57.3719 52.1687C59.1316 43.0991 63.8846 35.9492 71.6608 30.9911C76.1731 28.1039 81.1817 26.9853 86.4912 28.0586C93.8462 29.5399 99.3362 35.284 100.314 43.5979C100.885 48.3595 100.314 53.0455 98.9451 57.6256C96.328 66.4081 91.6352 73.9661 85.333 80.5416C82.4151 83.5649 79.1361 86.1799 75.4962 88.5985ZM63.4785 60.3919C69.2241 57.3384 74.5787 43.7188 72.3226 37.9294C66.3964 42.4491 61.4028 52.3199 63.4785 60.3919Z" fill="white"></path>
</svg>