<svg viewBox="0 0 1000 440" xmlns="http://www.w3.org/2000/svg" role="img" aria-label="Backtest: growth of $1, strategy vs BTC buy and hold">
  <defs>
    <linearGradient id="stratFill" x1="0" y1="0" x2="0" y2="1">
      <stop offset="0%" stop-color="#4ade80" stop-opacity="0.28"/>
      <stop offset="100%" stop-color="#4ade80" stop-opacity="0"/>
    </linearGradient>
  </defs>
  <style>
    .grid { stroke:#1c1c1c; stroke-width:1; }
    .ylab, .xlab { font-family:'Space Mono', monospace; font-size:13px; fill:#5a5a5a; }
    .btc  { fill:none; stroke:#5a5a5a; stroke-width:2; stroke-linejoin:round; stroke-linecap:round; }
    .strat { fill:none; stroke:#4ade80; stroke-width:2.8; stroke-linejoin:round; stroke-linecap:round; }
    .lgd { font-family:'Space Grotesk', sans-serif; font-size:14px; }
    .tag { font-family:'Space Mono', monospace; font-size:13px; font-weight:700; }
  </style>
  <line x1="64.0" y1="361.9" x2="976.0" y2="361.9" class="grid"/><line x1="64.0" y1="250.4" x2="976.0" y2="250.4" class="grid"/><line x1="64.0" y1="138.9" x2="976.0" y2="138.9" class="grid"/><line x1="64.0" y1="27.4" x2="976.0" y2="27.4" class="grid"/>
  <text x="54.0" y="365.9" class="ylab" text-anchor="end">1×</text><text x="54.0" y="254.4" class="ylab" text-anchor="end">2×</text><text x="54.0" y="142.9" class="ylab" text-anchor="end">4×</text><text x="54.0" y="31.4" class="ylab" text-anchor="end">8×</text>
  <text x="64.0" y="418.0" class="xlab" text-anchor="middle">2023</text><text x="330.4" y="418.0" class="xlab" text-anchor="middle">2024</text><text x="597.5" y="418.0" class="xlab" text-anchor="middle">2025</text><text x="863.9" y="418.0" class="xlab" text-anchor="middle">2026</text>
  <path d="M64.0,388.0 L64.0,361.9 L68.1,361.8 L72.3,361.7 L76.4,361.4 L80.5,361.2 L84.7,361.0 L88.8,360.9 L92.9,360.7 L97.1,360.5 L101.2,360.3 L105.4,360.2 L109.5,360.1 L113.6,360.0 L117.8,359.9 L121.9,359.7 L126.0,359.7 L130.2,359.6 L134.3,359.5 L138.4,359.4 L142.6,359.3 L146.7,359.2 L150.8,359.1 L155.0,359.0 L159.1,358.9 L163.3,358.8 L167.4,358.7 L171.5,358.6 L175.7,358.4 L179.8,358.3 L183.9,358.2 L188.1,358.1 L192.2,358.0 L196.3,357.8 L200.5,357.6 L204.6,357.6 L208.7,357.5 L212.9,357.4 L217.0,357.2 L221.1,357.1 L225.3,356.9 L229.4,356.7 L233.6,356.7 L237.7,356.6 L241.8,356.6 L246.0,356.5 L250.1,356.5 L254.2,356.5 L258.4,356.5 L262.5,356.5 L266.6,356.5 L270.8,356.4 L274.9,356.3 L279.0,356.3 L283.2,356.2 L287.3,356.0 L291.5,355.8 L295.6,355.5 L299.7,355.3 L303.9,355.1 L308.0,354.9 L312.1,354.7 L316.3,354.4 L320.4,354.2 L324.5,353.9 L328.7,353.2 L332.8,352.6 L336.9,352.5 L341.1,352.3 L345.2,352.1 L349.3,351.9 L353.5,351.7 L357.6,351.5 L361.8,351.4 L365.9,351.2 L370.0,350.9 L374.2,350.2 L378.3,349.2 L382.4,348.4 L386.6,347.8 L390.7,347.5 L394.8,347.0 L399.0,346.5 L403.1,346.3 L407.2,346.0 L411.4,345.9 L415.5,345.9 L419.7,345.7 L423.8,345.7 L427.9,345.6 L432.1,345.5 L436.2,345.3 L440.3,345.1 L444.5,344.9 L448.6,344.7 L452.7,344.5 L456.9,344.4 L461.0,344.2 L465.1,344.0 L469.3,343.9 L473.4,343.7 L477.6,343.7 L481.7,343.6 L485.8,343.4 L490.0,343.3 L494.1,343.3 L498.2,343.3 L502.4,343.4 L506.5,343.3 L510.6,343.3 L514.8,343.3 L518.9,343.4 L523.0,343.3 L527.2,343.2 L531.3,343.1 L535.4,343.0 L539.6,343.0 L543.7,342.8 L547.9,342.6 L552.0,342.4 L556.1,342.2 L560.3,342.0 L564.4,341.6 L568.5,341.4 L572.7,341.0 L576.8,340.7 L580.9,340.3 L585.1,340.1 L589.2,339.9 L593.3,339.7 L597.5,339.5 L601.6,339.4 L605.8,339.2 L609.9,339.1 L614.0,338.9 L618.2,338.8 L622.3,338.7 L626.4,338.6 L630.6,338.5 L634.7,338.4 L638.8,338.3 L643.0,338.3 L647.1,338.3 L651.2,338.2 L655.4,338.2 L659.5,338.1 L663.6,338.1 L667.8,338.0 L671.9,337.9 L676.1,337.8 L680.2,337.8 L684.3,337.8 L688.5,337.9 L692.6,337.8 L696.7,337.7 L700.9,337.5 L705.0,337.4 L709.1,337.3 L713.3,337.3 L717.4,337.2 L721.5,337.2 L725.7,337.1 L729.8,337.1 L734.0,337.0 L738.1,336.9 L742.2,336.7 L746.4,336.5 L750.5,336.3 L754.6,336.2 L758.8,336.1 L762.9,335.9 L767.0,335.8 L771.2,335.7 L775.3,335.6 L779.4,335.5 L783.6,335.4 L787.7,335.2 L791.8,335.2 L796.0,335.1 L800.1,335.0 L804.3,334.8 L808.4,334.9 L812.5,334.9 L816.7,334.8 L820.8,334.7 L824.9,334.6 L829.1,334.5 L833.2,334.3 L837.3,334.3 L841.5,334.2 L845.6,334.2 L849.7,334.1 L853.9,334.1 L858.0,333.9 L862.2,333.8 L866.3,333.7 L870.4,333.6 L874.6,333.5 L878.7,333.4 L882.8,333.3 L887.0,333.3 L891.1,333.4 L895.2,333.5 L899.4,333.4 L903.5,333.4 L907.6,333.4 L911.8,333.4 L915.9,333.5 L920.0,333.5 L924.2,333.5 L928.3,333.5 L932.5,333.5 L936.6,333.5 L940.7,333.6 L944.9,333.7 L949.0,333.7 L953.1,333.8 L957.3,333.8 L961.4,333.7 L965.5,333.7 L969.7,333.6 L973.8,333.5 L976.0,333.4 L976.0,388.0 Z" fill="url(#stratFill)"/>
  <polyline class="btc" points="64.0,361.9 68.1,357.8 72.3,347.4 76.4,320.9 80.5,309.2 84.7,305.0 88.8,306.4 92.9,317.3 97.1,310.0 101.2,295.2 105.4,304.9 109.5,313.5 113.6,331.6 117.8,299.9 121.9,276.8 126.0,278.2 130.2,274.4 134.3,277.4 138.4,265.6 142.6,263.9 146.7,281.3 150.8,269.9 155.0,268.6 159.1,281.8 163.3,283.8 167.4,283.8 171.5,281.3 175.7,281.9 179.8,285.9 183.9,289.0 188.1,283.9 192.2,263.4 196.3,262.9 200.5,265.9 204.6,263.9 208.7,266.4 212.9,266.9 217.0,269.5 221.1,269.9 225.3,268.6 229.4,270.3 233.6,289.4 237.7,288.7 241.8,290.2 246.0,290.3 250.1,289.7 254.2,284.3 258.4,285.4 262.5,283.3 266.6,280.5 270.8,284.2 274.9,274.6 279.0,266.0 283.2,244.8 287.3,243.5 291.5,238.2 295.6,235.8 299.7,231.0 303.9,228.8 308.0,226.2 312.1,204.6 316.3,213.6 320.4,214.5 324.5,205.4 328.7,211.4 332.8,204.1 336.9,197.9 341.1,209.8 345.2,213.1 349.3,212.9 353.5,207.7 357.6,207.8 361.8,183.6 365.9,176.9 370.0,180.1 374.2,150.4 378.3,138.7 382.4,125.5 386.6,133.6 390.7,143.9 394.8,131.3 399.0,138.8 403.1,131.5 407.2,142.6 411.4,141.2 415.5,144.6 419.7,156.5 423.8,148.6 427.9,146.8 432.1,137.0 436.2,132.4 440.3,133.3 444.5,125.9 448.6,135.2 452.7,137.5 456.9,143.3 461.0,150.9 465.1,153.8 469.3,161.4 473.4,147.0 477.6,136.4 481.7,135.4 485.8,143.3 490.0,165.5 494.1,153.9 498.2,155.6 502.4,143.9 506.5,152.4 510.6,163.4 514.8,162.6 518.9,153.6 523.0,146.4 527.2,141.2 531.3,149.5 535.4,148.3 539.6,146.9 543.7,133.8 547.9,135.4 552.0,124.3 556.1,130.5 560.3,105.8 564.4,88.0 568.5,74.3 572.7,79.8 576.8,78.9 580.9,75.7 585.1,69.5 589.2,75.8 593.3,78.8 597.5,82.7 601.6,68.7 605.8,80.4 609.9,67.8 614.0,66.1 618.2,69.1 622.3,74.8 626.4,78.1 630.6,76.1 634.7,75.2 638.8,99.9 643.0,102.3 647.1,103.6 651.2,99.7 655.4,101.2 659.5,93.9 663.6,98.1 667.8,111.3 671.9,99.5 676.1,99.4 680.2,83.6 684.3,81.2 688.5,81.0 692.6,65.8 696.7,66.8 700.9,54.5 705.0,61.2 709.1,64.2 713.3,63.3 717.4,64.7 721.5,63.2 725.7,60.9 729.8,63.0 734.0,58.3 738.1,46.4 742.2,45.8 746.4,45.1 750.5,45.7 754.6,50.1 758.8,45.9 762.9,46.6 767.0,52.9 771.2,55.9 775.3,58.1 779.4,55.0 783.6,48.7 787.7,46.9 791.8,52.1 796.0,51.6 800.1,38.3 804.3,54.3 808.4,63.5 812.5,60.5 816.7,50.3 820.8,60.7 824.9,68.6 829.1,77.5 833.2,85.2 837.3,94.0 841.5,99.0 845.6,90.3 849.7,88.7 853.9,91.9 858.0,94.9 862.2,94.2 866.3,86.9 870.4,88.0 874.6,79.5 878.7,88.7 882.8,92.2 887.0,114.4 891.1,131.6 895.2,138.6 899.4,138.0 903.5,144.2 907.6,139.1 911.8,136.1 915.9,125.5 920.0,129.2 924.2,128.4 928.3,135.2 932.5,137.1 936.6,123.0 940.7,119.2 944.9,112.2 949.0,113.6 953.1,110.9 957.3,107.7 961.4,106.0 965.5,113.4 969.7,114.9 973.8,121.4 976.0,142.8"/>
  <polyline class="strat" points="64.0,361.9 68.1,361.8 72.3,361.7 76.4,361.4 80.5,361.2 84.7,361.0 88.8,360.9 92.9,360.7 97.1,360.5 101.2,360.3 105.4,360.2 109.5,360.1 113.6,360.0 117.8,359.9 121.9,359.7 126.0,359.7 130.2,359.6 134.3,359.5 138.4,359.4 142.6,359.3 146.7,359.2 150.8,359.1 155.0,359.0 159.1,358.9 163.3,358.8 167.4,358.7 171.5,358.6 175.7,358.4 179.8,358.3 183.9,358.2 188.1,358.1 192.2,358.0 196.3,357.8 200.5,357.6 204.6,357.6 208.7,357.5 212.9,357.4 217.0,357.2 221.1,357.1 225.3,356.9 229.4,356.7 233.6,356.7 237.7,356.6 241.8,356.6 246.0,356.5 250.1,356.5 254.2,356.5 258.4,356.5 262.5,356.5 266.6,356.5 270.8,356.4 274.9,356.3 279.0,356.3 283.2,356.2 287.3,356.0 291.5,355.8 295.6,355.5 299.7,355.3 303.9,355.1 308.0,354.9 312.1,354.7 316.3,354.4 320.4,354.2 324.5,353.9 328.7,353.2 332.8,352.6 336.9,352.5 341.1,352.3 345.2,352.1 349.3,351.9 353.5,351.7 357.6,351.5 361.8,351.4 365.9,351.2 370.0,350.9 374.2,350.2 378.3,349.2 382.4,348.4 386.6,347.8 390.7,347.5 394.8,347.0 399.0,346.5 403.1,346.3 407.2,346.0 411.4,345.9 415.5,345.9 419.7,345.7 423.8,345.7 427.9,345.6 432.1,345.5 436.2,345.3 440.3,345.1 444.5,344.9 448.6,344.7 452.7,344.5 456.9,344.4 461.0,344.2 465.1,344.0 469.3,343.9 473.4,343.7 477.6,343.7 481.7,343.6 485.8,343.4 490.0,343.3 494.1,343.3 498.2,343.3 502.4,343.4 506.5,343.3 510.6,343.3 514.8,343.3 518.9,343.4 523.0,343.3 527.2,343.2 531.3,343.1 535.4,343.0 539.6,343.0 543.7,342.8 547.9,342.6 552.0,342.4 556.1,342.2 560.3,342.0 564.4,341.6 568.5,341.4 572.7,341.0 576.8,340.7 580.9,340.3 585.1,340.1 589.2,339.9 593.3,339.7 597.5,339.5 601.6,339.4 605.8,339.2 609.9,339.1 614.0,338.9 618.2,338.8 622.3,338.7 626.4,338.6 630.6,338.5 634.7,338.4 638.8,338.3 643.0,338.3 647.1,338.3 651.2,338.2 655.4,338.2 659.5,338.1 663.6,338.1 667.8,338.0 671.9,337.9 676.1,337.8 680.2,337.8 684.3,337.8 688.5,337.9 692.6,337.8 696.7,337.7 700.9,337.5 705.0,337.4 709.1,337.3 713.3,337.3 717.4,337.2 721.5,337.2 725.7,337.1 729.8,337.1 734.0,337.0 738.1,336.9 742.2,336.7 746.4,336.5 750.5,336.3 754.6,336.2 758.8,336.1 762.9,335.9 767.0,335.8 771.2,335.7 775.3,335.6 779.4,335.5 783.6,335.4 787.7,335.2 791.8,335.2 796.0,335.1 800.1,335.0 804.3,334.8 808.4,334.9 812.5,334.9 816.7,334.8 820.8,334.7 824.9,334.6 829.1,334.5 833.2,334.3 837.3,334.3 841.5,334.2 845.6,334.2 849.7,334.1 853.9,334.1 858.0,333.9 862.2,333.8 866.3,333.7 870.4,333.6 874.6,333.5 878.7,333.4 882.8,333.3 887.0,333.3 891.1,333.4 895.2,333.5 899.4,333.4 903.5,333.4 907.6,333.4 911.8,333.4 915.9,333.5 920.0,333.5 924.2,333.5 928.3,333.5 932.5,333.5 936.6,333.5 940.7,333.6 944.9,333.7 949.0,333.7 953.1,333.8 957.3,333.8 961.4,333.7 965.5,333.7 969.7,333.6 973.8,333.5 976.0,333.4"/>
  <circle cx="976.0" cy="142.8" r="3.5" fill="#5a5a5a"/>
  <circle cx="976.0" cy="333.4" r="4" fill="#4ade80"/>
  <text x="968.0" y="134.8" class="tag" fill="#8a8a8a" text-anchor="end">BTC +290%</text>
  <text x="968.0" y="351.4" class="tag" fill="#4ade80" text-anchor="end">Strategy +19%</text>
  <!-- legend -->
  <g transform="translate(70,30)">
    <line x1="0" y1="0" x2="22" y2="0" class="strat"/>
    <text x="30" y="5" class="lgd" fill="#e8e8e8">This skill — delta-neutral carry</text>
    <line x1="0" y1="22" x2="22" y2="22" class="btc"/>
    <text x="30" y="27" class="lgd" fill="#8a8a8a">BTC buy &amp; hold</text>
  </g>
</svg>