<svg viewBox="0 0 1000 470" xmlns="http://www.w3.org/2000/svg" role="img" aria-label="Delta-neutral carry: flat rising strategy equity vs BTC price">
  <defs>
    <linearGradient id="stratFill" x1="0" y1="0" x2="0" y2="1">
      <stop offset="0%" stop-color="#4ade80" stop-opacity="0.22"/>
      <stop offset="100%" stop-color="#4ade80" stop-opacity="0"/>
    </linearGradient>
  </defs>
  <style>
    .grid { stroke:#171717; stroke-width:1; }
    .ylab { font-family:'Space Mono', monospace; font-size:13px; }
    .xlab { font-family:'Space Mono', monospace; font-size:13px; fill:#5a5a5a; }
    .btc-ax { fill:#7a7a7a; }
    .strat-ax { fill:#4ade80; }
    .axtitle { font-family:'Space Grotesk', sans-serif; font-size:13px; }
    .btc  { fill:none; stroke:#6a6a6a; stroke-width:1.6; stroke-linejoin:round; stroke-linecap:round; }
    .strat { fill:none; stroke:#4ade80; stroke-width:3.2; stroke-linejoin:round; stroke-linecap:round; }
    .lgd { font-family:'Space Grotesk', sans-serif; font-size:14px; }
    .tag { font-family:'Space Mono', monospace; font-size:13px; font-weight:700; }
    .title { font-family:'Space Grotesk', sans-serif; font-size:17px; font-weight:600; fill:#ededed; }
  </style>
  <text x="500" y="30" class="title" text-anchor="middle">Flat, rising PnL through BTC&#39;s chaos</text>
  <line x1="88.0" y1="408.0" x2="908.0" y2="408.0" class="grid"/><line x1="88.0" y1="344.0" x2="908.0" y2="344.0" class="grid"/><line x1="88.0" y1="280.0" x2="908.0" y2="280.0" class="grid"/><line x1="88.0" y1="216.0" x2="908.0" y2="216.0" class="grid"/><line x1="88.0" y1="152.0" x2="908.0" y2="152.0" class="grid"/><line x1="88.0" y1="88.0" x2="908.0" y2="88.0" class="grid"/>
  <text x="76.0" y="412.0" class="ylab btc-ax" text-anchor="end">20k</text><text x="76.0" y="348.0" class="ylab btc-ax" text-anchor="end">40k</text><text x="76.0" y="284.0" class="ylab btc-ax" text-anchor="end">60k</text><text x="76.0" y="220.0" class="ylab btc-ax" text-anchor="end">80k</text><text x="76.0" y="156.0" class="ylab btc-ax" text-anchor="end">100k</text><text x="76.0" y="92.0" class="ylab btc-ax" text-anchor="end">120k</text><text x="920.0" y="428.0" class="ylab strat-ax" text-anchor="start">1.00</text><text x="920.0" y="338.2" class="ylab strat-ax" text-anchor="start">1.05</text><text x="920.0" y="248.5" class="ylab strat-ax" text-anchor="start">1.10</text><text x="920.0" y="158.7" class="ylab strat-ax" text-anchor="start">1.15</text><text x="920.0" y="69.0" class="ylab strat-ax" text-anchor="start">1.20</text><text x="88.0" y="450.0" class="xlab" text-anchor="middle">2023</text><text x="327.5" y="450.0" class="xlab" text-anchor="middle">2024</text><text x="567.7" y="450.0" class="xlab" text-anchor="middle">2025</text><text x="807.2" y="450.0" class="xlab" text-anchor="middle">2026</text>
  <text x="20" y="240.0" class="axtitle btc-ax" text-anchor="middle" transform="rotate(-90 20 240.0)">BTC price (USD)</text><text x="980.0" y="240.0" class="axtitle strat-ax" text-anchor="middle" transform="rotate(90 980.0 240.0)">Strategy equity (start = 1.0)</text>
  <path d="M88.0,424.0 L88.0,424.0 L91.3,423.2 L94.6,422.2 L97.8,420.0 L101.1,418.1 L104.4,416.2 L107.7,414.3 L111.0,412.4 L114.2,410.5 L117.5,409.2 L120.8,407.2 L124.1,405.8 L127.4,404.8 L130.7,404.2 L133.9,403.6 L137.2,401.4 L140.5,399.9 L143.8,399.3 L147.1,398.4 L150.3,397.8 L153.6,397.2 L156.9,396.0 L160.2,394.8 L163.5,393.7 L166.7,392.7 L170.0,391.7 L173.3,390.9 L176.6,390.2 L179.9,389.2 L183.1,387.9 L186.4,386.4 L189.7,384.9 L193.0,383.9 L196.3,383.1 L199.5,382.0 L202.8,380.5 L206.1,378.7 L209.4,376.8 L212.7,375.9 L216.0,374.9 L219.2,373.9 L222.5,372.9 L225.8,371.5 L229.1,370.0 L232.4,368.2 L235.6,366.5 L238.9,364.8 L242.2,365.0 L245.5,364.5 L248.8,363.9 L252.0,363.5 L255.3,363.4 L258.6,363.4 L261.9,363.3 L265.2,362.8 L268.4,362.8 L271.7,362.7 L275.0,361.7 L278.3,361.5 L281.6,361.4 L284.9,359.5 L288.1,357.6 L291.4,355.6 L294.7,353.3 L298.0,350.2 L301.3,348.2 L304.5,346.2 L307.8,344.3 L311.1,342.4 L314.4,339.2 L317.7,337.1 L320.9,333.9 L324.2,329.6 L327.5,322.0 L330.8,317.6 L334.1,315.6 L337.3,313.6 L340.6,311.6 L343.9,309.6 L347.2,307.9 L350.5,306.0 L353.8,304.4 L357.0,302.4 L360.3,299.6 L363.6,297.3 L366.9,289.3 L370.2,278.3 L373.4,270.0 L376.7,261.7 L380.0,257.4 L383.3,254.1 L386.6,248.3 L389.8,243.9 L393.1,241.0 L396.4,238.3 L399.7,237.2 L403.0,236.6 L406.2,235.8 L409.5,234.6 L412.8,233.7 L416.1,232.2 L419.4,231.5 L422.6,229.6 L425.9,227.4 L429.2,225.2 L432.5,222.9 L435.8,220.8 L439.1,218.7 L442.3,217.4 L445.6,215.5 L448.9,213.4 L452.2,211.6 L455.5,210.0 L458.7,209.5 L462.0,208.9 L465.3,207.1 L468.6,205.5 L471.9,204.6 L475.1,204.2 L478.4,204.6 L481.7,205.1 L485.0,204.9 L488.3,204.8 L491.5,204.3 L494.8,205.3 L498.1,205.1 L501.4,204.2 L504.7,203.3 L508.0,202.0 L511.2,201.2 L514.5,200.4 L517.8,198.9 L521.1,196.8 L524.4,194.8 L527.6,192.7 L530.9,190.6 L534.2,187.8 L537.5,184.0 L540.8,180.6 L544.0,177.6 L547.3,174.1 L550.6,168.7 L553.9,165.3 L557.2,163.2 L560.4,161.1 L563.7,159.1 L567.0,157.3 L570.3,155.3 L573.6,153.5 L576.9,152.3 L580.1,150.7 L583.4,148.8 L586.7,147.1 L590.0,145.7 L593.3,145.0 L596.5,144.0 L599.8,142.9 L603.1,142.0 L606.4,140.9 L609.7,140.8 L612.9,140.2 L616.2,139.7 L619.5,139.1 L622.8,138.9 L626.1,138.3 L629.3,137.4 L632.6,136.5 L635.9,135.6 L639.2,134.9 L642.5,134.7 L645.7,135.0 L649.0,135.5 L652.3,134.6 L655.6,133.1 L658.9,132.0 L662.2,130.4 L665.4,129.2 L668.7,128.3 L672.0,128.3 L675.3,127.3 L678.6,126.7 L681.8,126.0 L685.1,125.7 L688.4,124.8 L691.7,124.2 L695.0,122.3 L698.2,120.1 L701.5,117.9 L704.8,115.7 L708.1,114.3 L711.4,112.9 L714.6,111.1 L717.9,109.5 L721.2,108.3 L724.5,106.6 L727.8,105.3 L731.1,104.1 L734.3,102.7 L737.6,101.6 L740.9,100.8 L744.2,99.8 L747.5,98.8 L750.7,96.8 L754.0,95.8 L757.3,96.2 L760.6,96.6 L763.9,95.7 L767.1,94.5 L770.4,93.0 L773.7,91.8 L777.0,90.5 L780.3,88.8 L783.5,88.4 L786.8,87.9 L790.1,87.4 L793.4,86.7 L796.7,85.8 L799.9,84.4 L803.2,83.1 L806.5,81.7 L809.8,80.5 L813.1,79.4 L816.4,78.5 L819.6,77.6 L822.9,76.3 L826.2,75.1 L829.5,74.9 L832.8,76.3 L836.0,77.4 L839.3,77.2 L842.6,76.8 L845.9,77.0 L849.2,76.7 L852.4,77.3 L855.7,78.0 L859.0,78.0 L862.3,77.9 L865.6,78.3 L868.8,78.3 L872.1,77.7 L875.4,78.5 L878.7,79.7 L882.0,80.5 L885.3,81.0 L888.5,81.3 L891.8,82.0 L895.1,81.2 L898.4,80.6 L901.7,79.5 L904.9,78.0 L908.0,76.6 L908.0,424.0 Z" fill="url(#stratFill)"/>
  <polyline class="btc" points="88.0,419.1 91.3,418.3 94.6,416.2 97.8,404.4 101.1,399.6 104.4,398.5 107.7,398.5 111.0,397.2 114.2,401.9 117.5,401.3 120.8,393.6 124.1,398.1 127.4,397.2 130.7,400.3 133.9,406.9 137.2,388.6 140.5,382.1 143.8,383.1 147.1,381.1 150.3,382.7 153.6,375.7 156.9,374.9 160.2,381.9 163.5,381.2 166.7,380.4 170.0,378.1 173.3,384.2 176.6,384.8 179.9,385.5 183.1,387.2 186.4,385.1 189.7,386.2 193.0,390.0 196.3,392.1 199.5,386.2 202.8,373.7 206.1,373.6 209.4,373.5 212.7,375.7 216.0,375.0 219.2,375.4 222.5,378.8 225.8,378.3 229.1,378.6 232.4,376.6 235.6,377.9 238.9,389.1 242.2,387.3 245.5,388.8 248.8,389.0 252.0,388.0 255.3,389.2 258.6,386.6 261.9,387.0 265.2,387.4 268.4,383.9 271.7,382.7 275.0,386.1 278.3,380.8 281.6,374.4 284.9,363.0 288.1,359.1 291.4,360.2 294.7,353.1 298.0,356.0 301.3,355.4 304.5,352.7 307.8,348.2 311.1,331.5 314.4,337.8 317.7,337.9 320.9,332.4 324.2,336.0 327.5,335.9 330.8,332.3 334.1,324.5 337.3,335.1 340.6,338.7 343.9,344.1 347.2,334.3 350.5,334.2 353.8,321.2 357.0,306.2 360.3,306.0 363.6,306.4 366.9,275.2 370.2,258.4 373.4,244.1 376.7,249.6 380.0,257.5 383.3,246.3 386.6,246.8 389.8,257.8 393.1,250.0 396.4,260.1 399.7,267.4 403.0,267.2 406.2,270.0 409.5,268.2 412.8,270.2 416.1,273.1 419.4,258.3 422.6,251.9 425.9,255.6 429.2,251.0 432.5,250.1 435.8,257.9 439.1,263.1 442.3,272.2 445.6,276.6 448.9,285.7 452.2,289.3 455.5,279.9 458.7,268.2 462.0,260.6 465.3,249.6 468.6,274.8 471.9,289.1 475.1,282.5 478.4,281.5 481.7,276.7 485.0,284.5 488.3,287.9 491.5,298.4 494.8,286.1 498.1,284.3 501.4,270.7 504.7,262.6 508.0,274.6 511.2,268.8 514.5,271.3 517.8,256.7 521.1,256.4 524.4,257.0 527.6,250.2 530.9,237.0 534.2,212.3 537.5,180.2 540.8,161.8 544.0,171.7 547.3,163.1 550.6,157.7 553.9,160.5 557.2,136.2 560.4,155.2 563.7,159.5 567.0,175.0 570.3,157.7 573.6,169.7 576.9,160.8 580.1,129.0 583.4,138.1 586.7,135.7 590.0,157.1 593.3,161.5 596.5,162.0 599.8,166.0 603.1,165.3 606.4,200.9 609.7,179.8 612.9,214.8 616.2,202.4 619.5,203.6 622.8,190.1 626.1,209.9 629.3,204.8 632.6,211.0 635.9,197.8 639.2,200.8 642.5,172.1 645.7,169.4 649.0,169.0 652.3,140.1 655.6,146.5 658.9,136.1 662.2,127.6 665.4,136.0 668.7,135.2 672.0,134.3 675.3,135.9 678.6,137.3 681.8,136.3 685.1,128.4 688.4,124.3 691.7,124.2 695.0,79.3 698.2,94.0 701.5,93.2 704.8,91.7 708.1,108.3 711.4,98.3 714.6,89.5 717.9,103.5 721.2,101.5 724.5,110.1 727.8,119.4 731.1,117.7 734.3,103.8 737.6,97.2 740.9,112.1 744.2,122.1 747.5,93.0 750.7,76.4 754.0,115.3 757.3,134.1 760.6,125.5 763.9,102.3 767.1,119.9 770.4,142.0 773.7,136.8 777.0,164.6 780.3,203.2 783.5,190.7 786.8,195.2 790.1,185.4 793.4,183.3 796.7,196.9 799.9,190.0 803.2,189.0 806.5,188.6 809.8,176.0 813.1,182.0 816.4,162.9 819.6,180.4 822.9,188.4 826.2,207.1 829.5,227.3 832.8,246.7 836.0,250.6 839.3,257.0 842.6,269.9 845.9,257.2 849.2,244.7 852.4,249.2 855.7,237.0 859.0,245.8 862.3,247.8 865.6,256.5 868.8,258.3 872.1,243.3 875.4,236.1 878.7,232.7 882.0,224.2 885.3,228.4 888.5,213.4 891.8,213.8 895.1,213.5 898.4,224.8 901.7,224.4 904.9,236.8 908.0,265.7"/>
  <polyline class="strat" points="88.0,424.0 91.3,423.2 94.6,422.2 97.8,420.0 101.1,418.1 104.4,416.2 107.7,414.3 111.0,412.4 114.2,410.5 117.5,409.2 120.8,407.2 124.1,405.8 127.4,404.8 130.7,404.2 133.9,403.6 137.2,401.4 140.5,399.9 143.8,399.3 147.1,398.4 150.3,397.8 153.6,397.2 156.9,396.0 160.2,394.8 163.5,393.7 166.7,392.7 170.0,391.7 173.3,390.9 176.6,390.2 179.9,389.2 183.1,387.9 186.4,386.4 189.7,384.9 193.0,383.9 196.3,383.1 199.5,382.0 202.8,380.5 206.1,378.7 209.4,376.8 212.7,375.9 216.0,374.9 219.2,373.9 222.5,372.9 225.8,371.5 229.1,370.0 232.4,368.2 235.6,366.5 238.9,364.8 242.2,365.0 245.5,364.5 248.8,363.9 252.0,363.5 255.3,363.4 258.6,363.4 261.9,363.3 265.2,362.8 268.4,362.8 271.7,362.7 275.0,361.7 278.3,361.5 281.6,361.4 284.9,359.5 288.1,357.6 291.4,355.6 294.7,353.3 298.0,350.2 301.3,348.2 304.5,346.2 307.8,344.3 311.1,342.4 314.4,339.2 317.7,337.1 320.9,333.9 324.2,329.6 327.5,322.0 330.8,317.6 334.1,315.6 337.3,313.6 340.6,311.6 343.9,309.6 347.2,307.9 350.5,306.0 353.8,304.4 357.0,302.4 360.3,299.6 363.6,297.3 366.9,289.3 370.2,278.3 373.4,270.0 376.7,261.7 380.0,257.4 383.3,254.1 386.6,248.3 389.8,243.9 393.1,241.0 396.4,238.3 399.7,237.2 403.0,236.6 406.2,235.8 409.5,234.6 412.8,233.7 416.1,232.2 419.4,231.5 422.6,229.6 425.9,227.4 429.2,225.2 432.5,222.9 435.8,220.8 439.1,218.7 442.3,217.4 445.6,215.5 448.9,213.4 452.2,211.6 455.5,210.0 458.7,209.5 462.0,208.9 465.3,207.1 468.6,205.5 471.9,204.6 475.1,204.2 478.4,204.6 481.7,205.1 485.0,204.9 488.3,204.8 491.5,204.3 494.8,205.3 498.1,205.1 501.4,204.2 504.7,203.3 508.0,202.0 511.2,201.2 514.5,200.4 517.8,198.9 521.1,196.8 524.4,194.8 527.6,192.7 530.9,190.6 534.2,187.8 537.5,184.0 540.8,180.6 544.0,177.6 547.3,174.1 550.6,168.7 553.9,165.3 557.2,163.2 560.4,161.1 563.7,159.1 567.0,157.3 570.3,155.3 573.6,153.5 576.9,152.3 580.1,150.7 583.4,148.8 586.7,147.1 590.0,145.7 593.3,145.0 596.5,144.0 599.8,142.9 603.1,142.0 606.4,140.9 609.7,140.8 612.9,140.2 616.2,139.7 619.5,139.1 622.8,138.9 626.1,138.3 629.3,137.4 632.6,136.5 635.9,135.6 639.2,134.9 642.5,134.7 645.7,135.0 649.0,135.5 652.3,134.6 655.6,133.1 658.9,132.0 662.2,130.4 665.4,129.2 668.7,128.3 672.0,128.3 675.3,127.3 678.6,126.7 681.8,126.0 685.1,125.7 688.4,124.8 691.7,124.2 695.0,122.3 698.2,120.1 701.5,117.9 704.8,115.7 708.1,114.3 711.4,112.9 714.6,111.1 717.9,109.5 721.2,108.3 724.5,106.6 727.8,105.3 731.1,104.1 734.3,102.7 737.6,101.6 740.9,100.8 744.2,99.8 747.5,98.8 750.7,96.8 754.0,95.8 757.3,96.2 760.6,96.6 763.9,95.7 767.1,94.5 770.4,93.0 773.7,91.8 777.0,90.5 780.3,88.8 783.5,88.4 786.8,87.9 790.1,87.4 793.4,86.7 796.7,85.8 799.9,84.4 803.2,83.1 806.5,81.7 809.8,80.5 813.1,79.4 816.4,78.5 819.6,77.6 822.9,76.3 826.2,75.1 829.5,74.9 832.8,76.3 836.0,77.4 839.3,77.2 842.6,76.8 845.9,77.0 849.2,76.7 852.4,77.3 855.7,78.0 859.0,78.0 862.3,77.9 865.6,78.3 868.8,78.3 872.1,77.7 875.4,78.5 878.7,79.7 882.0,80.5 885.3,81.0 888.5,81.3 891.8,82.0 895.1,81.2 898.4,80.6 901.7,79.5 904.9,78.0 908.0,76.6"/>
  <circle cx="908.0" cy="265.7" r="3.5" fill="#6a6a6a"/>
  <circle cx="908.0" cy="76.6" r="4.5" fill="#4ade80"/>
  <text x="898.0" y="283.7" class="tag" fill="#8a8a8a" text-anchor="end">BTC +290%</text>
  <text x="898.0" y="64.6" class="tag" fill="#4ade80" text-anchor="end">Strategy +19%</text>
  <g transform="translate(96,60)">
    <line x1="0" y1="0" x2="24" y2="0" class="strat"/>
    <text x="32" y="5" class="lgd" fill="#ededed">This skill — delta-neutral carry</text>
    <line x1="0" y1="23" x2="24" y2="23" class="btc"/>
    <text x="32" y="28" class="lgd" fill="#8a8a8a">BTC buy &amp; hold (price)</text>
  </g>
</svg>